<svg xmlns="http://www.w3.org/2000/svg" xmlns:xlink="http://www.w3.org/1999/xlink" width="1920" zoomAndPan="magnify" viewBox="0 0 1440 457.91998" height="600" preserveAspectRatio="xMidYMid meet" version="1.0"><defs><g/><clipPath id="5adf3a698d"><path d="M 44 97 L 639 97 L 639 373.976562 L 44 373.976562 Z M 44 97 " clip-rule="nonzero"/></clipPath></defs><g clip-path="url(#5adf3a698d)"><path fill="#ffffff" d="M 44.160156 131.675781 L 44.15625 166.152344 L 99.769531 221.46875 C 130.355469 251.894531 155.558594 276.78125 155.773438 276.777344 C 155.992188 276.773438 179.75 253.332031 208.570312 224.6875 L 260.976562 172.605469 L 265.019531 176.914062 C 269.625 181.824219 272.386719 184.792969 285.292969 198.691406 C 290.367188 204.15625 294.832031 208.960938 295.214844 209.371094 C 295.601562 209.78125 299.152344 213.625 303.105469 217.910156 C 307.0625 222.195312 312.542969 228.0625 315.285156 230.949219 C 318.023438 233.835938 320.796875 236.808594 321.449219 237.550781 C 323.578125 239.992188 342.601562 260.488281 365.019531 284.5 C 369.492188 289.292969 373.652344 293.792969 374.265625 294.496094 C 375.660156 296.101562 390.769531 312.183594 394.902344 316.460938 C 396.597656 318.21875 404.148438 326.234375 411.683594 334.273438 L 425.386719 348.894531 L 425.5625 312.875 L 425.742188 276.859375 L 424.191406 275.25 C 421.632812 272.558594 419.078125 269.863281 416.527344 267.160156 C 412.199219 262.589844 407.863281 258.035156 403.511719 253.488281 C 397.761719 247.488281 390.734375 239.953125 380.578125 228.914062 C 377.582031 225.683594 374.578125 222.460938 371.566406 219.242188 C 367.515625 214.910156 363.363281 210.441406 362.339844 209.308594 C 360.554688 207.359375 358.753906 205.417969 356.945312 203.488281 C 355.003906 201.414062 351.265625 197.398438 348.640625 194.558594 C 344.425781 189.996094 340.207031 185.4375 335.988281 180.882812 C 331.65625 176.203125 326.261719 170.367188 324 167.917969 C 314.09375 157.171875 309.445312 152.164062 305.507812 148 C 303.195312 145.550781 297.492188 139.386719 292.839844 134.296875 C 288.191406 129.210938 281.890625 122.421875 278.847656 119.214844 C 275.242188 115.40625 271.65625 111.582031 268.089844 107.738281 C 265.21875 104.640625 262.59375 102.101562 262.25 102.101562 C 261.910156 102.101562 237.824219 125.933594 208.726562 155.0625 L 155.828125 208.023438 L 103.59375 155.734375 C 74.863281 126.976562 49.738281 102.042969 47.761719 100.324219 L 44.164062 97.199219 Z M 382.171875 102.046875 C 382.015625 102.203125 381.890625 127.789062 381.898438 158.902344 L 381.914062 215.476562 L 389.605469 223.378906 C 396.855469 230.824219 413.859375 248.773438 421.242188 256.769531 C 423.078125 258.757812 424.898438 260.28125 425.28125 260.152344 C 426.1875 259.851562 426.632812 103.003906 425.730469 102.445312 C 425.015625 102.003906 382.601562 101.613281 382.171875 102.046875 M 519.578125 110.363281 C 490.515625 112.496094 461.050781 126.886719 441.878906 148.308594 L 437.386719 153.328125 L 437.367188 226.507812 L 437.351562 299.6875 L 444.382812 306.789062 C 463.445312 326.039062 489.269531 338.460938 513.753906 340.148438 C 517.144531 340.382812 521.308594 340.699219 523.003906 340.851562 C 527.746094 341.277344 541.425781 339.984375 549.199219 338.371094 C 569.59375 334.144531 588.824219 323.761719 604.214844 308.664062 C 615.351562 297.738281 621 289.933594 627.324219 276.730469 C 634.992188 260.710938 638.085938 246.957031 638.59375 226.605469 L 638.933594 213.078125 L 538.363281 213.078125 L 533.59375 217.292969 C 526.25 223.785156 517.71875 231.492188 512.863281 236.027344 C 507.679688 240.867188 505.71875 242.632812 498.421875 249.042969 C 495.417969 251.679688 493.042969 254.144531 493.140625 254.523438 C 493.253906 254.96875 509.664062 255.273438 540.148438 255.398438 C 565.90625 255.503906 587.09375 255.703125 587.234375 255.84375 C 587.707031 256.316406 583.925781 263.140625 580.976562 267.152344 C 574.230469 276.3125 566.226562 283.042969 556.226562 287.964844 C 545.519531 293.234375 536.644531 295.277344 524.480469 295.28125 C 506 295.285156 489.101562 288.269531 476 275.15625 C 448.496094 247.628906 448.324219 205.003906 475.613281 177.683594 C 486.898438 166.386719 500.710938 159.761719 517.515625 157.585938 C 536.40625 155.144531 558.558594 162.273438 572.492188 175.285156 L 575.738281 178.316406 L 578.65625 175.90625 C 580.261719 174.582031 587.136719 168.453125 593.933594 162.289062 C 600.734375 156.125 607.59375 149.925781 609.175781 148.515625 C 610.761719 147.101562 612.058594 145.660156 612.058594 145.308594 C 612.058594 144.175781 601.414062 134.964844 594.816406 130.394531 C 582.589844 121.914062 567.464844 115.40625 552.933594 112.371094 C 547.773438 111.292969 528.589844 109.339844 527.113281 109.742188 C 526.925781 109.792969 523.535156 110.074219 519.578125 110.363281 M 44.167969 262.570312 L 44.164062 338.4375 L 67.039062 338.4375 C 87.265625 338.4375 89.960938 338.3125 90.332031 337.355469 C 90.558594 336.757812 90.746094 313.109375 90.746094 284.800781 L 90.746094 233.328125 L 44.167969 186.703125 Z M 241.066406 210.464844 L 221.578125 229.769531 L 221.929688 338.097656 L 267.828125 338.097656 L 268.003906 267.90625 L 268.175781 197.71875 L 264.945312 194.4375 C 263.167969 192.632812 261.453125 191.15625 261.136719 191.15625 C 260.816406 191.15625 251.785156 199.84375 241.066406 210.464844 M 251.511719 382.976562 C 241.402344 386.011719 238.90625 400.15625 247.339844 406.609375 C 249.664062 408.382812 250.695312 408.683594 255.15625 408.882812 C 259.632812 409.082031 260.589844 408.90625 262.628906 407.515625 C 266.121094 405.121094 267.636719 402.652344 268.011719 398.746094 L 268.351562 395.246094 L 261.582031 395.441406 L 254.816406 395.640625 L 254.816406 397.695312 C 254.8125 399.714844 254.878906 399.753906 258.71875 399.953125 C 261.84375 400.117188 262.542969 400.363281 262.230469 401.179688 C 261.664062 402.65625 258.320312 404.203125 255.703125 404.199219 C 249.472656 404.191406 245.671875 397.621094 248.613281 391.941406 C 250.875 387.566406 256.785156 386.339844 260.511719 389.472656 C 262.949219 391.527344 263.234375 391.546875 265.429688 389.785156 L 267.144531 388.414062 L 264.460938 386.035156 C 260.632812 382.636719 256.164062 381.582031 251.515625 382.976562 M 319.984375 383.285156 C 316.742188 384.441406 313.53125 387.367188 312.269531 390.308594 C 311.753906 391.519531 311.328125 394.328125 311.328125 396.542969 C 311.328125 399.902344 311.65625 401.027344 313.316406 403.316406 C 316.382812 407.546875 319.402344 409.09375 324.65625 409.125 C 332.109375 409.167969 336.671875 405.179688 336.671875 398.621094 L 336.671875 395.296875 L 324.34375 395.296875 L 324.34375 400.09375 L 328.089844 400.09375 C 332.394531 400.09375 332.65625 401.144531 328.851562 403.191406 C 325.539062 404.976562 321.148438 404.242188 318.691406 401.492188 C 316.613281 399.167969 316.125 394.804688 317.589844 391.59375 C 318.519531 389.550781 321.992188 387.761719 325.027344 387.761719 C 327.207031 387.761719 331.195312 389.628906 331.195312 390.648438 C 331.195312 391.597656 332.640625 391.226562 334.433594 389.816406 L 336.175781 388.445312 L 333.664062 386.074219 C 329.8125 382.441406 325.066406 381.472656 319.984375 383.285156 M 402.652344 383.949219 C 397.46875 386.363281 395.246094 389.976562 395.246094 395.980469 C 395.246094 399.800781 395.546875 400.992188 397.128906 403.382812 C 399.660156 407.210938 403.316406 408.996094 408.609375 408.996094 C 413.207031 408.996094 415.566406 408.050781 418.28125 405.121094 C 421.03125 402.148438 421.6875 400.40625 421.710938 396.03125 C 421.730469 391.359375 420.617188 388.828125 417.21875 385.84375 C 412.878906 382.035156 408.097656 381.414062 402.652344 383.949219 M 155.824219 395.980469 L 155.824219 408.996094 L 160.621094 408.996094 L 160.628906 400.949219 L 160.636719 392.898438 L 163.863281 397.867188 C 165.738281 400.753906 167.570312 402.832031 168.234375 402.832031 C 168.90625 402.832031 170.664062 400.789062 172.511719 397.867188 L 175.648438 392.898438 L 175.671875 400.949219 L 175.691406 408.996094 L 180.484375 408.996094 L 180.484375 382.964844 L 178.472656 382.964844 C 176.691406 382.964844 176 383.675781 172.476562 389.082031 C 170.289062 392.449219 168.34375 395.203125 168.15625 395.207031 C 167.964844 395.210938 166.046875 392.460938 163.890625 389.089844 C 160.371094 383.597656 159.753906 382.964844 157.894531 382.964844 L 155.824219 382.964844 Z M 201.722656 395.980469 L 201.722656 408.996094 L 206.472656 408.996094 L 206.664062 401.292969 L 206.859375 393.585938 L 212.582031 401.292969 C 217.578125 408.015625 218.5625 408.996094 220.289062 408.996094 L 222.273438 408.996094 L 222.273438 382.882812 L 219.703125 383.097656 L 217.136719 383.308594 L 216.746094 398.167969 L 213.488281 393.808594 C 211.695312 391.414062 209.222656 387.992188 207.996094 386.207031 C 206.1875 383.578125 205.382812 382.964844 203.742188 382.964844 L 201.722656 382.964844 Z M 357.167969 383.25 C 357.011719 383.40625 356.972656 389.261719 357.082031 396.265625 L 357.28125 408.996094 L 362.019531 408.996094 L 362.019531 404.546875 C 362.019531 400.140625 362.042969 400.09375 363.902344 400.101562 C 365.457031 400.109375 366.304688 400.886719 368.738281 404.554688 C 371.539062 408.769531 371.828125 408.996094 374.390625 408.996094 C 375.875 408.996094 377.089844 408.710938 377.089844 408.363281 C 377.089844 408.015625 375.835938 405.910156 374.304688 403.691406 L 371.515625 399.652344 L 373.597656 397.425781 C 376.210938 394.625 376.847656 391.515625 375.476562 388.230469 C 373.800781 384.21875 371 382.972656 363.675781 382.96875 C 360.253906 382.96875 357.324219 383.09375 357.167969 383.25 M 441.496094 392.6875 C 441.503906 403.566406 441.894531 404.980469 445.535156 407.4375 C 447.351562 408.660156 448.804688 408.996094 452.285156 408.996094 C 456.519531 408.996094 456.835938 408.878906 459.375 406.339844 L 462.035156 403.679688 L 462.035156 382.964844 L 457.238281 382.964844 L 457.238281 392.085938 C 457.238281 400.316406 457.105469 401.351562 455.84375 402.703125 C 454.878906 403.738281 453.640625 404.203125 451.839844 404.203125 C 447.503906 404.203125 447.035156 403.113281 446.8125 392.527344 L 446.621094 383.308594 L 444.054688 383.097656 L 441.484375 382.882812 Z M 482.585938 396.023438 L 482.585938 409.082031 L 485.15625 408.867188 L 487.722656 408.65625 L 488.066406 404.546875 C 488.367188 400.949219 488.574219 400.464844 489.734375 400.664062 C 490.460938 400.792969 492.367188 400.699219 493.96875 400.457031 C 501.9375 399.265625 504.316406 388.492188 497.527344 384.355469 C 495.683594 383.230469 494.070312 382.972656 488.921875 382.96875 L 482.585938 382.964844 Z M 362.019531 391.53125 L 362.019531 395.296875 L 365.101562 395.296875 C 367.273438 395.296875 368.589844 394.890625 369.554688 393.925781 C 372.539062 390.941406 370.164062 387.761719 364.949219 387.761719 L 362.019531 387.761719 Z M 402.613281 390.285156 C 400.371094 392.664062 400.25 393.03125 400.546875 396.566406 C 400.804688 399.714844 401.207031 400.636719 403.027344 402.261719 C 406.933594 405.753906 413.492188 404.503906 415.703125 399.847656 C 417.097656 396.90625 417.097656 396.015625 415.710938 392.542969 C 414.398438 389.265625 411.929688 387.761719 407.859375 387.761719 C 405.445312 387.761719 404.621094 388.160156 402.613281 390.285156 M 488.066406 391.871094 L 488.066406 395.980469 L 490.652344 395.980469 C 494.09375 395.980469 496.285156 394.386719 496.285156 391.882812 C 496.285156 389.054688 494.660156 387.761719 491.101562 387.761719 L 488.066406 387.761719 Z M 44.164062 395.640625 L 44.164062 397.351562 L 84.5 397.351562 C 123.863281 397.351562 124.847656 397.320312 125.1875 396.023438 C 125.378906 395.289062 125.363281 394.519531 125.152344 394.308594 C 124.941406 394.097656 106.632812 393.925781 84.464844 393.925781 L 44.164062 393.925781 Z M 531.457031 394.996094 C 531.226562 395.589844 531.332031 396.363281 531.6875 396.71875 C 532.078125 397.109375 548.011719 397.292969 572.367188 397.1875 C 611.882812 397.011719 612.398438 396.992188 612.398438 395.640625 C 612.398438 394.289062 611.882812 394.265625 572.136719 394.09375 C 536.015625 393.933594 531.828125 394.027344 531.457031 394.996094 " fill-opacity="1" fill-rule="evenodd"/></g><path stroke-linecap="butt" transform="matrix(0, 0.749869, -0.749869, 0, 729.373332, 44.992136)" fill="none" stroke-linejoin="miter" d="M 0.0000688144 12.49996 L 480.000619 12.49996 " stroke="#ffffff" stroke-width="25" stroke-opacity="1" stroke-miterlimit="4"/><g fill="#ffffff" fill-opacity="1"><g transform="translate(833.351555, 202.976572)"><g><path d="M 99.40625 -83.59375 L 99.40625 0 L 82.640625 0 L 82.640625 -54.375 L 60.234375 0 L 47.546875 0 L 25.03125 -54.375 L 25.03125 0 L 8.265625 0 L 8.265625 -83.59375 L 27.3125 -83.59375 L 53.890625 -21.4375 L 80.484375 -83.59375 Z M 99.40625 -83.59375 "/></g></g></g><g fill="#ffffff" fill-opacity="1"><g transform="translate(941.012497, 202.976572)"><g><path d="M 59.53125 -15.921875 L 26.234375 -15.921875 L 20.71875 0 L 3.109375 0 L 33.171875 -83.71875 L 52.703125 -83.71875 L 82.765625 0 L 65.03125 0 Z M 54.96875 -29.34375 L 42.875 -64.3125 L 30.78125 -29.34375 Z M 54.96875 -29.34375 "/></g></g></g><g fill="#ffffff" fill-opacity="1"><g transform="translate(1026.758035, 202.976572)"><g><path d="M 79.765625 0 L 63 0 L 25.03125 -57.375 L 25.03125 0 L 8.265625 0 L 8.265625 -83.71875 L 25.03125 -83.71875 L 63 -26.234375 L 63 -83.71875 L 79.765625 -83.71875 Z M 79.765625 0 "/></g></g></g><g fill="#ffffff" fill-opacity="1"><g transform="translate(1114.778935, 202.976572)"><g><path d="M 66.46875 -58.453125 C 64.550781 -61.960938 61.914062 -64.632812 58.5625 -66.46875 C 55.207031 -68.300781 51.296875 -69.21875 46.828125 -69.21875 C 41.878906 -69.21875 37.488281 -68.097656 33.65625 -65.859375 C 29.820312 -63.628906 26.828125 -60.4375 24.671875 -56.28125 C 22.515625 -52.132812 21.4375 -47.347656 21.4375 -41.921875 C 21.4375 -36.328125 22.535156 -31.453125 24.734375 -27.296875 C 26.929688 -23.148438 29.984375 -19.957031 33.890625 -17.71875 C 37.804688 -15.488281 42.359375 -14.375 47.546875 -14.375 C 53.929688 -14.375 59.160156 -16.066406 63.234375 -19.453125 C 67.304688 -22.847656 69.984375 -27.582031 71.265625 -33.65625 L 42.515625 -33.65625 L 42.515625 -46.46875 L 87.78125 -46.46875 L 87.78125 -31.859375 C 86.664062 -26.023438 84.269531 -20.632812 80.59375 -15.6875 C 76.925781 -10.738281 72.195312 -6.765625 66.40625 -3.765625 C 60.625 -0.773438 54.140625 0.71875 46.953125 0.71875 C 38.890625 0.71875 31.601562 -1.097656 25.09375 -4.734375 C 18.582031 -8.367188 13.46875 -13.414062 9.75 -19.875 C 6.039062 -26.34375 4.1875 -33.691406 4.1875 -41.921875 C 4.1875 -50.140625 6.039062 -57.503906 9.75 -64.015625 C 13.46875 -70.523438 18.582031 -75.59375 25.09375 -79.21875 C 31.601562 -82.851562 38.847656 -84.671875 46.828125 -84.671875 C 56.242188 -84.671875 64.425781 -82.375 71.375 -77.78125 C 78.320312 -73.195312 83.113281 -66.753906 85.75 -58.453125 Z M 66.46875 -58.453125 "/></g></g></g><g fill="#ffffff" fill-opacity="1"><g transform="translate(1206.751797, 202.976572)"><g><path d="M 59.53125 -15.921875 L 26.234375 -15.921875 L 20.71875 0 L 3.109375 0 L 33.171875 -83.71875 L 52.703125 -83.71875 L 82.765625 0 L 65.03125 0 Z M 54.96875 -29.34375 L 42.875 -64.3125 L 30.78125 -29.34375 Z M 54.96875 -29.34375 "/></g></g></g><g fill="#ffffff" fill-opacity="1"><g transform="translate(1292.497346, 202.976572)"><g><path d="M 79.765625 0 L 63 0 L 25.03125 -57.375 L 25.03125 0 L 8.265625 0 L 8.265625 -83.71875 L 25.03125 -83.71875 L 63 -26.234375 L 63 -83.71875 L 79.765625 -83.71875 Z M 79.765625 0 "/></g></g></g><g fill="#ffffff" fill-opacity="1"><g transform="translate(897.418482, 343.951931)"><g><path d="M 66.46875 -58.453125 C 64.550781 -61.960938 61.914062 -64.632812 58.5625 -66.46875 C 55.207031 -68.300781 51.296875 -69.21875 46.828125 -69.21875 C 41.878906 -69.21875 37.488281 -68.097656 33.65625 -65.859375 C 29.820312 -63.628906 26.828125 -60.4375 24.671875 -56.28125 C 22.515625 -52.132812 21.4375 -47.347656 21.4375 -41.921875 C 21.4375 -36.328125 22.535156 -31.453125 24.734375 -27.296875 C 26.929688 -23.148438 29.984375 -19.957031 33.890625 -17.71875 C 37.804688 -15.488281 42.359375 -14.375 47.546875 -14.375 C 53.929688 -14.375 59.160156 -16.066406 63.234375 -19.453125 C 67.304688 -22.847656 69.984375 -27.582031 71.265625 -33.65625 L 42.515625 -33.65625 L 42.515625 -46.46875 L 87.78125 -46.46875 L 87.78125 -31.859375 C 86.664062 -26.023438 84.269531 -20.632812 80.59375 -15.6875 C 76.925781 -10.738281 72.195312 -6.765625 66.40625 -3.765625 C 60.625 -0.773438 54.140625 0.71875 46.953125 0.71875 C 38.890625 0.71875 31.601562 -1.097656 25.09375 -4.734375 C 18.582031 -8.367188 13.46875 -13.414062 9.75 -19.875 C 6.039062 -26.34375 4.1875 -33.691406 4.1875 -41.921875 C 4.1875 -50.140625 6.039062 -57.503906 9.75 -64.015625 C 13.46875 -70.523438 18.582031 -75.59375 25.09375 -79.21875 C 31.601562 -82.851562 38.847656 -84.671875 46.828125 -84.671875 C 56.242188 -84.671875 64.425781 -82.375 71.375 -77.78125 C 78.320312 -73.195312 83.113281 -66.753906 85.75 -58.453125 Z M 66.46875 -58.453125 "/></g></g></g><g fill="#ffffff" fill-opacity="1"><g transform="translate(989.391344, 343.951931)"><g><path d="M 51.375 0 L 32.9375 -32.578125 L 25.03125 -32.578125 L 25.03125 0 L 8.265625 0 L 8.265625 -83.59375 L 39.640625 -83.59375 C 46.109375 -83.59375 51.617188 -82.453125 56.171875 -80.171875 C 60.722656 -77.898438 64.132812 -74.828125 66.40625 -70.953125 C 68.6875 -67.085938 69.828125 -62.757812 69.828125 -57.96875 C 69.828125 -52.457031 68.226562 -47.484375 65.03125 -43.046875 C 61.832031 -38.617188 57.082031 -35.566406 50.78125 -33.890625 L 70.78125 0 Z M 25.03125 -45.15625 L 39.046875 -45.15625 C 43.597656 -45.15625 46.988281 -46.25 49.21875 -48.4375 C 51.457031 -50.632812 52.578125 -53.691406 52.578125 -57.609375 C 52.578125 -61.441406 51.457031 -64.414062 49.21875 -66.53125 C 46.988281 -68.644531 43.597656 -69.703125 39.046875 -69.703125 L 25.03125 -69.703125 Z M 25.03125 -45.15625 "/></g></g></g><g fill="#ffffff" fill-opacity="1"><g transform="translate(1066.155149, 343.951931)"><g><path d="M 47.0625 0.84375 C 39.238281 0.84375 32.050781 -0.992188 25.5 -4.671875 C 18.957031 -8.347656 13.769531 -13.4375 9.9375 -19.9375 C 6.101562 -26.445312 4.1875 -33.8125 4.1875 -42.03125 C 4.1875 -50.175781 6.101562 -57.503906 9.9375 -64.015625 C 13.769531 -70.523438 18.957031 -75.613281 25.5 -79.28125 C 32.050781 -82.957031 39.238281 -84.796875 47.0625 -84.796875 C 54.96875 -84.796875 62.175781 -82.957031 68.6875 -79.28125 C 75.195312 -75.613281 80.347656 -70.523438 84.140625 -64.015625 C 87.929688 -57.503906 89.828125 -50.175781 89.828125 -42.03125 C 89.828125 -33.8125 87.929688 -26.445312 84.140625 -19.9375 C 80.347656 -13.4375 75.175781 -8.347656 68.625 -4.671875 C 62.082031 -0.992188 54.894531 0.84375 47.0625 0.84375 Z M 47.0625 -14.125 C 52.09375 -14.125 56.523438 -15.257812 60.359375 -17.53125 C 64.191406 -19.8125 67.1875 -23.066406 69.34375 -27.296875 C 71.5 -31.535156 72.578125 -36.445312 72.578125 -42.03125 C 72.578125 -47.625 71.5 -52.515625 69.34375 -56.703125 C 67.1875 -60.898438 64.191406 -64.113281 60.359375 -66.34375 C 56.523438 -68.582031 52.09375 -69.703125 47.0625 -69.703125 C 42.03125 -69.703125 37.578125 -68.582031 33.703125 -66.34375 C 29.835938 -64.113281 26.828125 -60.898438 24.671875 -56.703125 C 22.515625 -52.515625 21.4375 -47.625 21.4375 -42.03125 C 21.4375 -36.445312 22.515625 -31.535156 24.671875 -27.296875 C 26.828125 -23.066406 29.835938 -19.8125 33.703125 -17.53125 C 37.578125 -15.257812 42.03125 -14.125 47.0625 -14.125 Z M 47.0625 -14.125 "/></g></g></g><g fill="#ffffff" fill-opacity="1"><g transform="translate(1160.163878, 343.951931)"><g><path d="M 24.796875 -83.59375 L 24.796875 -31.859375 C 24.796875 -26.191406 26.269531 -21.859375 29.21875 -18.859375 C 32.175781 -15.867188 36.328125 -14.375 41.671875 -14.375 C 47.109375 -14.375 51.300781 -15.867188 54.25 -18.859375 C 57.207031 -21.859375 58.6875 -26.191406 58.6875 -31.859375 L 58.6875 -83.59375 L 75.578125 -83.59375 L 75.578125 -31.984375 C 75.578125 -24.867188 74.035156 -18.859375 70.953125 -13.953125 C 67.878906 -9.046875 63.769531 -5.351562 58.625 -2.875 C 53.476562 -0.394531 47.75 0.84375 41.4375 0.84375 C 35.207031 0.84375 29.554688 -0.394531 24.484375 -2.875 C 19.421875 -5.351562 15.410156 -9.046875 12.453125 -13.953125 C 9.503906 -18.859375 8.03125 -24.867188 8.03125 -31.984375 L 8.03125 -83.59375 Z M 24.796875 -83.59375 "/></g></g></g><g fill="#ffffff" fill-opacity="1"><g transform="translate(1243.63403, 343.951931)"><g><path d="M 69.21875 -57.734375 C 69.21875 -53.253906 68.160156 -49.054688 66.046875 -45.140625 C 63.929688 -41.234375 60.617188 -38.082031 56.109375 -35.6875 C 51.597656 -33.289062 45.910156 -32.09375 39.046875 -32.09375 L 25.03125 -32.09375 L 25.03125 0 L 8.265625 0 L 8.265625 -83.59375 L 39.046875 -83.59375 C 45.515625 -83.59375 51.019531 -82.472656 55.5625 -80.234375 C 60.113281 -78.003906 63.523438 -74.929688 65.796875 -71.015625 C 68.078125 -67.109375 69.21875 -62.679688 69.21875 -57.734375 Z M 38.328125 -45.625 C 42.953125 -45.625 46.382812 -46.679688 48.625 -48.796875 C 50.863281 -50.921875 51.984375 -53.898438 51.984375 -57.734375 C 51.984375 -65.867188 47.429688 -69.9375 38.328125 -69.9375 L 25.03125 -69.9375 L 25.03125 -45.625 Z M 38.328125 -45.625 "/></g></g></g></svg>