<svg xmlns="http://www.w3.org/2000/svg" xmlns:xlink="http://www.w3.org/1999/xlink" width="1920" zoomAndPan="magnify" viewBox="0 0 1440 457.91998" height="600" preserveAspectRatio="xMidYMid meet" version="1.0"><defs><g/><clipPath id="d34f2dac6e"><path d="M 38 97 L 634 97 L 634 373.976562 L 38 373.976562 Z M 38 97 " clip-rule="nonzero"/></clipPath></defs><g clip-path="url(#d34f2dac6e)"><path fill="#000000" d="M 38.394531 131.871094 L 38.390625 166.359375 L 94.023438 221.695312 C 124.621094 252.132812 149.832031 277.027344 150.046875 277.023438 C 150.265625 277.019531 174.03125 253.570312 202.867188 224.914062 L 255.289062 172.8125 L 259.332031 177.121094 C 263.941406 182.035156 266.703125 185.003906 279.617188 198.910156 C 284.691406 204.375 289.160156 209.183594 289.542969 209.59375 C 289.925781 210.003906 293.480469 213.847656 297.4375 218.132812 C 301.394531 222.421875 306.875 228.292969 309.617188 231.179688 C 312.359375 234.066406 315.132812 237.039062 315.785156 237.78125 C 317.917969 240.222656 336.945312 260.726562 359.371094 284.75 C 363.847656 289.546875 368.007812 294.042969 368.621094 294.75 C 370.019531 296.355469 385.128906 312.441406 389.265625 316.722656 C 390.960938 318.480469 398.515625 326.5 406.054688 334.542969 L 419.761719 349.164062 L 419.9375 313.136719 L 420.113281 277.105469 L 418.566406 275.492188 C 416.003906 272.804688 413.449219 270.105469 410.898438 267.402344 C 406.570312 262.832031 402.230469 258.273438 397.878906 253.726562 C 392.128906 247.722656 385.09375 240.1875 374.9375 229.140625 C 371.9375 225.910156 368.933594 222.6875 365.921875 219.46875 C 361.867188 215.132812 357.714844 210.664062 356.691406 209.53125 C 354.902344 207.578125 353.105469 205.636719 351.292969 203.707031 C 349.351562 201.632812 345.613281 197.613281 342.984375 194.773438 C 338.769531 190.210938 334.550781 185.652344 330.328125 181.09375 C 325.996094 176.414062 320.597656 170.574219 318.335938 168.121094 C 308.429688 157.375 303.777344 152.363281 299.839844 148.199219 C 297.523438 145.75 291.820312 139.582031 287.167969 134.492188 C 282.511719 129.40625 276.210938 122.613281 273.167969 119.402344 C 269.558594 115.59375 265.972656 111.765625 262.40625 107.921875 C 259.535156 104.820312 256.90625 102.285156 256.5625 102.285156 C 256.222656 102.285156 232.128906 126.125 203.023438 155.265625 L 150.105469 208.242188 L 97.847656 155.9375 C 69.109375 127.167969 43.972656 102.222656 41.996094 100.503906 L 38.398438 97.382812 Z M 376.53125 102.226562 C 376.371094 102.382812 376.25 127.980469 376.257812 159.105469 L 376.273438 215.699219 L 383.96875 223.605469 C 391.21875 231.054688 408.226562 249.007812 415.617188 257.007812 C 417.453125 258.996094 419.269531 260.519531 419.65625 260.390625 C 420.5625 260.089844 421.007812 103.1875 420.105469 102.628906 C 419.390625 102.1875 376.960938 101.792969 376.53125 102.226562 M 513.988281 110.546875 C 484.914062 112.683594 455.441406 127.078125 436.257812 148.507812 L 431.765625 153.53125 L 431.746094 226.734375 L 431.726562 299.941406 L 438.765625 307.046875 C 457.832031 326.304688 483.667969 338.726562 508.160156 340.421875 C 511.554688 340.65625 515.71875 340.972656 517.414062 341.121094 C 522.160156 341.546875 535.84375 340.253906 543.617188 338.640625 C 564.019531 334.414062 583.261719 324.023438 598.65625 308.921875 C 609.796875 297.992188 615.445312 290.1875 621.769531 276.976562 C 629.445312 260.949219 632.539062 247.191406 633.046875 226.835938 L 633.386719 213.300781 L 532.78125 213.300781 L 528.007812 217.515625 C 520.660156 224.011719 512.125 231.722656 507.269531 236.257812 C 502.085938 241.101562 500.125 242.867188 492.824219 249.277344 C 489.820312 251.917969 487.441406 254.382812 487.539062 254.761719 C 487.65625 255.207031 504.070312 255.511719 534.566406 255.636719 C 560.332031 255.742188 581.527344 255.941406 581.667969 256.082031 C 582.140625 256.554688 578.359375 263.382812 575.40625 267.394531 C 568.660156 276.558594 560.652344 283.292969 550.648438 288.214844 C 539.9375 293.484375 531.058594 295.53125 518.890625 295.535156 C 500.40625 295.535156 483.5 288.519531 470.394531 275.402344 C 442.878906 247.863281 442.707031 205.222656 470.003906 177.894531 C 481.292969 166.589844 495.113281 159.964844 511.925781 157.789062 C 530.820312 155.34375 552.980469 162.480469 566.917969 175.492188 L 570.167969 178.527344 L 573.085938 176.117188 C 574.691406 174.789062 581.570312 168.660156 588.371094 162.492188 C 595.171875 156.328125 602.03125 150.125 603.617188 148.714844 C 605.203125 147.300781 606.5 145.859375 606.5 145.503906 C 606.5 144.371094 595.851562 135.160156 589.253906 130.585938 C 577.023438 122.101562 561.890625 115.59375 547.351562 112.554688 C 542.195312 111.480469 523.003906 109.527344 521.523438 109.929688 C 521.335938 109.976562 517.945312 110.257812 513.988281 110.546875 M 38.402344 262.8125 L 38.398438 338.707031 L 61.28125 338.707031 C 81.515625 338.707031 84.214844 338.582031 84.582031 337.625 C 84.808594 337.027344 84.996094 313.367188 84.996094 285.046875 L 84.996094 233.558594 L 38.402344 186.917969 Z M 235.375 210.6875 L 215.878906 230 L 216.230469 338.367188 L 262.144531 338.367188 L 262.320312 268.148438 L 262.492188 197.933594 L 259.261719 194.652344 C 257.484375 192.847656 255.765625 191.371094 255.449219 191.371094 C 255.132812 191.371094 246.097656 200.0625 235.375 210.6875 M 245.824219 383.261719 C 235.710938 386.300781 233.210938 400.449219 241.652344 406.902344 C 243.972656 408.679688 245.007812 408.980469 249.464844 409.179688 C 253.945312 409.378906 254.90625 409.203125 256.941406 407.808594 C 260.4375 405.414062 261.953125 402.945312 262.328125 399.039062 L 262.667969 395.535156 L 255.898438 395.730469 L 249.128906 395.929688 L 249.125 397.984375 C 249.125 400.003906 249.191406 400.042969 253.03125 400.246094 C 256.15625 400.410156 256.859375 400.652344 256.542969 401.46875 C 255.976562 402.949219 252.632812 404.496094 250.015625 404.492188 C 243.78125 404.484375 239.980469 397.914062 242.921875 392.226562 C 245.183594 387.855469 251.097656 386.628906 254.824219 389.761719 C 257.265625 391.816406 257.546875 391.832031 259.746094 390.074219 L 261.457031 388.703125 L 258.777344 386.320312 C 254.945312 382.921875 250.476562 381.867188 245.824219 383.261719 M 314.320312 383.570312 C 311.078125 384.726562 307.863281 387.652344 306.601562 390.597656 C 306.085938 391.808594 305.660156 394.617188 305.660156 396.832031 C 305.660156 400.195312 305.988281 401.320312 307.648438 403.609375 C 310.714844 407.84375 313.738281 409.390625 318.992188 409.421875 C 326.449219 409.464844 331.015625 405.472656 331.015625 398.910156 L 331.015625 395.585938 L 318.679688 395.585938 L 318.679688 400.382812 L 322.429688 400.382812 C 326.734375 400.382812 326.996094 401.4375 323.191406 403.484375 C 319.878906 405.269531 315.484375 404.535156 313.027344 401.785156 C 310.945312 399.457031 310.460938 395.09375 311.921875 391.882812 C 312.851562 389.839844 316.328125 388.050781 319.363281 388.050781 C 321.542969 388.050781 325.53125 389.917969 325.53125 390.9375 C 325.53125 391.886719 326.980469 391.511719 328.773438 390.101562 L 330.519531 388.730469 L 328.003906 386.359375 C 324.152344 382.726562 319.402344 381.757812 314.320312 383.570312 M 397.019531 384.234375 C 391.832031 386.648438 389.605469 390.265625 389.605469 396.273438 C 389.605469 400.09375 389.910156 401.285156 391.492188 403.675781 C 394.027344 407.503906 397.683594 409.292969 402.976562 409.292969 C 407.578125 409.292969 409.9375 408.347656 412.652344 405.414062 C 415.402344 402.441406 416.0625 400.699219 416.082031 396.324219 C 416.105469 391.648438 414.988281 389.113281 411.589844 386.132812 C 407.25 382.320312 402.464844 381.699219 397.019531 384.234375 M 150.097656 396.273438 L 150.097656 409.292969 L 154.894531 409.292969 L 154.902344 401.242188 L 154.910156 393.1875 L 158.140625 398.15625 C 160.019531 401.042969 161.847656 403.125 162.511719 403.125 C 163.183594 403.125 164.945312 401.082031 166.792969 398.15625 L 169.929688 393.1875 L 169.953125 401.242188 L 169.972656 409.292969 L 174.769531 409.292969 L 174.769531 383.25 L 172.753906 383.25 C 170.976562 383.25 170.28125 383.960938 166.757812 389.371094 C 164.570312 392.738281 162.625 395.492188 162.433594 395.496094 C 162.246094 395.503906 160.324219 392.75 158.167969 389.378906 C 154.648438 383.882812 154.03125 383.25 152.171875 383.25 L 150.097656 383.25 Z M 196.015625 396.273438 L 196.015625 409.292969 L 200.765625 409.292969 L 200.960938 401.582031 L 201.152344 393.875 L 206.878906 401.582031 C 211.875 408.308594 212.859375 409.292969 214.589844 409.292969 L 216.574219 409.292969 L 216.574219 383.167969 L 214.003906 383.382812 L 211.433594 383.59375 L 211.042969 398.460938 L 207.78125 394.101562 C 205.988281 391.703125 203.519531 388.277344 202.289062 386.496094 C 200.480469 383.863281 199.679688 383.25 198.035156 383.25 L 196.015625 383.25 Z M 351.515625 383.535156 C 351.359375 383.691406 351.320312 389.550781 351.433594 396.554688 L 351.632812 409.292969 L 356.371094 409.292969 L 356.371094 404.839844 C 356.371094 400.433594 356.390625 400.382812 358.253906 400.394531 C 359.808594 400.398438 360.65625 401.179688 363.09375 404.847656 C 365.894531 409.066406 366.183594 409.292969 368.746094 409.292969 C 370.230469 409.292969 371.445312 409.007812 371.445312 408.65625 C 371.445312 408.308594 370.191406 406.203125 368.660156 403.984375 L 365.871094 399.941406 L 367.953125 397.714844 C 370.566406 394.917969 371.203125 391.804688 369.832031 388.515625 C 368.15625 384.503906 365.355469 383.257812 358.027344 383.253906 C 354.605469 383.253906 351.675781 383.378906 351.515625 383.535156 M 435.875 392.976562 C 435.886719 403.859375 436.273438 405.277344 439.914062 407.730469 C 441.734375 408.957031 443.1875 409.292969 446.667969 409.292969 C 450.90625 409.292969 451.21875 409.175781 453.761719 406.632812 L 456.421875 403.972656 L 456.421875 383.25 L 451.625 383.25 L 451.625 392.375 C 451.625 400.605469 451.488281 401.640625 450.226562 402.996094 C 449.261719 404.03125 448.023438 404.496094 446.222656 404.496094 C 441.886719 404.496094 441.417969 403.40625 441.195312 392.816406 L 441.003906 383.59375 L 438.433594 383.382812 L 435.863281 383.167969 Z M 476.980469 396.3125 L 476.980469 409.375 L 479.550781 409.164062 L 482.121094 408.949219 L 482.464844 404.839844 C 482.761719 401.242188 482.972656 400.753906 484.132812 400.957031 C 484.859375 401.082031 486.765625 400.992188 488.367188 400.75 C 496.339844 399.554688 498.71875 388.78125 491.925781 384.640625 C 490.085938 383.515625 488.46875 383.257812 483.320312 383.253906 L 476.980469 383.25 Z M 356.371094 391.816406 L 356.371094 395.585938 L 359.453125 395.585938 C 361.625 395.585938 362.945312 395.179688 363.910156 394.214844 C 366.894531 391.230469 364.519531 388.046875 359.300781 388.046875 L 356.371094 388.046875 Z M 396.980469 390.574219 C 394.738281 392.953125 394.617188 393.320312 394.910156 396.859375 C 395.171875 400.007812 395.570312 400.925781 397.394531 402.554688 C 401.300781 406.046875 407.863281 404.796875 410.074219 400.140625 C 411.46875 397.195312 411.46875 396.308594 410.082031 392.832031 C 408.769531 389.550781 406.300781 388.046875 402.230469 388.046875 C 399.8125 388.046875 398.988281 388.445312 396.980469 390.574219 M 482.464844 392.160156 L 482.464844 396.273438 L 485.050781 396.273438 C 488.496094 396.273438 490.6875 394.675781 490.6875 392.171875 C 490.6875 389.34375 489.058594 388.046875 485.5 388.046875 L 482.464844 388.046875 Z M 38.398438 395.929688 L 38.398438 397.644531 L 78.75 397.644531 C 118.125 397.644531 119.109375 397.609375 119.449219 396.3125 C 119.640625 395.582031 119.625 394.808594 119.414062 394.597656 C 119.207031 394.386719 100.890625 394.214844 78.714844 394.214844 L 38.398438 394.214844 Z M 525.867188 395.285156 C 525.640625 395.878906 525.746094 396.65625 526.097656 397.007812 C 526.492188 397.402344 542.429688 397.585938 566.792969 397.476562 C 606.328125 397.300781 606.84375 397.28125 606.84375 395.929688 C 606.84375 394.578125 606.328125 394.558594 566.5625 394.382812 C 530.433594 394.222656 526.242188 394.316406 525.867188 395.285156 " fill-opacity="1" fill-rule="evenodd"/></g><g fill="#000000" fill-opacity="1"><g transform="translate(833.351555, 202.976581)"><g><path d="M 99.40625 -83.59375 L 99.40625 0 L 82.640625 0 L 82.640625 -54.375 L 60.234375 0 L 47.546875 0 L 25.03125 -54.375 L 25.03125 0 L 8.265625 0 L 8.265625 -83.59375 L 27.3125 -83.59375 L 53.890625 -21.4375 L 80.484375 -83.59375 Z M 99.40625 -83.59375 "/></g></g></g><g fill="#000000" fill-opacity="1"><g transform="translate(941.012497, 202.976581)"><g><path d="M 59.53125 -15.921875 L 26.234375 -15.921875 L 20.71875 0 L 3.109375 0 L 33.171875 -83.71875 L 52.703125 -83.71875 L 82.765625 0 L 65.03125 0 Z M 54.96875 -29.34375 L 42.875 -64.3125 L 30.78125 -29.34375 Z M 54.96875 -29.34375 "/></g></g></g><g fill="#000000" fill-opacity="1"><g transform="translate(1026.758035, 202.976581)"><g><path d="M 79.765625 0 L 63 0 L 25.03125 -57.375 L 25.03125 0 L 8.265625 0 L 8.265625 -83.71875 L 25.03125 -83.71875 L 63 -26.234375 L 63 -83.71875 L 79.765625 -83.71875 Z M 79.765625 0 "/></g></g></g><g fill="#000000" fill-opacity="1"><g transform="translate(1114.778935, 202.976581)"><g><path d="M 66.46875 -58.453125 C 64.550781 -61.960938 61.914062 -64.632812 58.5625 -66.46875 C 55.207031 -68.300781 51.296875 -69.21875 46.828125 -69.21875 C 41.878906 -69.21875 37.488281 -68.097656 33.65625 -65.859375 C 29.820312 -63.628906 26.828125 -60.4375 24.671875 -56.28125 C 22.515625 -52.132812 21.4375 -47.347656 21.4375 -41.921875 C 21.4375 -36.328125 22.535156 -31.453125 24.734375 -27.296875 C 26.929688 -23.148438 29.984375 -19.957031 33.890625 -17.71875 C 37.804688 -15.488281 42.359375 -14.375 47.546875 -14.375 C 53.929688 -14.375 59.160156 -16.066406 63.234375 -19.453125 C 67.304688 -22.847656 69.984375 -27.582031 71.265625 -33.65625 L 42.515625 -33.65625 L 42.515625 -46.46875 L 87.78125 -46.46875 L 87.78125 -31.859375 C 86.664062 -26.023438 84.269531 -20.632812 80.59375 -15.6875 C 76.925781 -10.738281 72.195312 -6.765625 66.40625 -3.765625 C 60.625 -0.773438 54.140625 0.71875 46.953125 0.71875 C 38.890625 0.71875 31.601562 -1.097656 25.09375 -4.734375 C 18.582031 -8.367188 13.46875 -13.414062 9.75 -19.875 C 6.039062 -26.34375 4.1875 -33.691406 4.1875 -41.921875 C 4.1875 -50.140625 6.039062 -57.503906 9.75 -64.015625 C 13.46875 -70.523438 18.582031 -75.59375 25.09375 -79.21875 C 31.601562 -82.851562 38.847656 -84.671875 46.828125 -84.671875 C 56.242188 -84.671875 64.425781 -82.375 71.375 -77.78125 C 78.320312 -73.195312 83.113281 -66.753906 85.75 -58.453125 Z M 66.46875 -58.453125 "/></g></g></g><g fill="#000000" fill-opacity="1"><g transform="translate(1206.751797, 202.976581)"><g><path d="M 59.53125 -15.921875 L 26.234375 -15.921875 L 20.71875 0 L 3.109375 0 L 33.171875 -83.71875 L 52.703125 -83.71875 L 82.765625 0 L 65.03125 0 Z M 54.96875 -29.34375 L 42.875 -64.3125 L 30.78125 -29.34375 Z M 54.96875 -29.34375 "/></g></g></g><g fill="#000000" fill-opacity="1"><g transform="translate(1292.497346, 202.976581)"><g><path d="M 79.765625 0 L 63 0 L 25.03125 -57.375 L 25.03125 0 L 8.265625 0 L 8.265625 -83.71875 L 25.03125 -83.71875 L 63 -26.234375 L 63 -83.71875 L 79.765625 -83.71875 Z M 79.765625 0 "/></g></g></g><g fill="#000000" fill-opacity="1"><g transform="translate(897.418482, 343.95194)"><g><path d="M 66.46875 -58.453125 C 64.550781 -61.960938 61.914062 -64.632812 58.5625 -66.46875 C 55.207031 -68.300781 51.296875 -69.21875 46.828125 -69.21875 C 41.878906 -69.21875 37.488281 -68.097656 33.65625 -65.859375 C 29.820312 -63.628906 26.828125 -60.4375 24.671875 -56.28125 C 22.515625 -52.132812 21.4375 -47.347656 21.4375 -41.921875 C 21.4375 -36.328125 22.535156 -31.453125 24.734375 -27.296875 C 26.929688 -23.148438 29.984375 -19.957031 33.890625 -17.71875 C 37.804688 -15.488281 42.359375 -14.375 47.546875 -14.375 C 53.929688 -14.375 59.160156 -16.066406 63.234375 -19.453125 C 67.304688 -22.847656 69.984375 -27.582031 71.265625 -33.65625 L 42.515625 -33.65625 L 42.515625 -46.46875 L 87.78125 -46.46875 L 87.78125 -31.859375 C 86.664062 -26.023438 84.269531 -20.632812 80.59375 -15.6875 C 76.925781 -10.738281 72.195312 -6.765625 66.40625 -3.765625 C 60.625 -0.773438 54.140625 0.71875 46.953125 0.71875 C 38.890625 0.71875 31.601562 -1.097656 25.09375 -4.734375 C 18.582031 -8.367188 13.46875 -13.414062 9.75 -19.875 C 6.039062 -26.34375 4.1875 -33.691406 4.1875 -41.921875 C 4.1875 -50.140625 6.039062 -57.503906 9.75 -64.015625 C 13.46875 -70.523438 18.582031 -75.59375 25.09375 -79.21875 C 31.601562 -82.851562 38.847656 -84.671875 46.828125 -84.671875 C 56.242188 -84.671875 64.425781 -82.375 71.375 -77.78125 C 78.320312 -73.195312 83.113281 -66.753906 85.75 -58.453125 Z M 66.46875 -58.453125 "/></g></g></g><g fill="#000000" fill-opacity="1"><g transform="translate(989.391344, 343.95194)"><g><path d="M 51.375 0 L 32.9375 -32.578125 L 25.03125 -32.578125 L 25.03125 0 L 8.265625 0 L 8.265625 -83.59375 L 39.640625 -83.59375 C 46.109375 -83.59375 51.617188 -82.453125 56.171875 -80.171875 C 60.722656 -77.898438 64.132812 -74.828125 66.40625 -70.953125 C 68.6875 -67.085938 69.828125 -62.757812 69.828125 -57.96875 C 69.828125 -52.457031 68.226562 -47.484375 65.03125 -43.046875 C 61.832031 -38.617188 57.082031 -35.566406 50.78125 -33.890625 L 70.78125 0 Z M 25.03125 -45.15625 L 39.046875 -45.15625 C 43.597656 -45.15625 46.988281 -46.25 49.21875 -48.4375 C 51.457031 -50.632812 52.578125 -53.691406 52.578125 -57.609375 C 52.578125 -61.441406 51.457031 -64.414062 49.21875 -66.53125 C 46.988281 -68.644531 43.597656 -69.703125 39.046875 -69.703125 L 25.03125 -69.703125 Z M 25.03125 -45.15625 "/></g></g></g><g fill="#000000" fill-opacity="1"><g transform="translate(1066.155149, 343.95194)"><g><path d="M 47.0625 0.84375 C 39.238281 0.84375 32.050781 -0.992188 25.5 -4.671875 C 18.957031 -8.347656 13.769531 -13.4375 9.9375 -19.9375 C 6.101562 -26.445312 4.1875 -33.8125 4.1875 -42.03125 C 4.1875 -50.175781 6.101562 -57.503906 9.9375 -64.015625 C 13.769531 -70.523438 18.957031 -75.613281 25.5 -79.28125 C 32.050781 -82.957031 39.238281 -84.796875 47.0625 -84.796875 C 54.96875 -84.796875 62.175781 -82.957031 68.6875 -79.28125 C 75.195312 -75.613281 80.347656 -70.523438 84.140625 -64.015625 C 87.929688 -57.503906 89.828125 -50.175781 89.828125 -42.03125 C 89.828125 -33.8125 87.929688 -26.445312 84.140625 -19.9375 C 80.347656 -13.4375 75.175781 -8.347656 68.625 -4.671875 C 62.082031 -0.992188 54.894531 0.84375 47.0625 0.84375 Z M 47.0625 -14.125 C 52.09375 -14.125 56.523438 -15.257812 60.359375 -17.53125 C 64.191406 -19.8125 67.1875 -23.066406 69.34375 -27.296875 C 71.5 -31.535156 72.578125 -36.445312 72.578125 -42.03125 C 72.578125 -47.625 71.5 -52.515625 69.34375 -56.703125 C 67.1875 -60.898438 64.191406 -64.113281 60.359375 -66.34375 C 56.523438 -68.582031 52.09375 -69.703125 47.0625 -69.703125 C 42.03125 -69.703125 37.578125 -68.582031 33.703125 -66.34375 C 29.835938 -64.113281 26.828125 -60.898438 24.671875 -56.703125 C 22.515625 -52.515625 21.4375 -47.625 21.4375 -42.03125 C 21.4375 -36.445312 22.515625 -31.535156 24.671875 -27.296875 C 26.828125 -23.066406 29.835938 -19.8125 33.703125 -17.53125 C 37.578125 -15.257812 42.03125 -14.125 47.0625 -14.125 Z M 47.0625 -14.125 "/></g></g></g><g fill="#000000" fill-opacity="1"><g transform="translate(1160.163878, 343.95194)"><g><path d="M 24.796875 -83.59375 L 24.796875 -31.859375 C 24.796875 -26.191406 26.269531 -21.859375 29.21875 -18.859375 C 32.175781 -15.867188 36.328125 -14.375 41.671875 -14.375 C 47.109375 -14.375 51.300781 -15.867188 54.25 -18.859375 C 57.207031 -21.859375 58.6875 -26.191406 58.6875 -31.859375 L 58.6875 -83.59375 L 75.578125 -83.59375 L 75.578125 -31.984375 C 75.578125 -24.867188 74.035156 -18.859375 70.953125 -13.953125 C 67.878906 -9.046875 63.769531 -5.351562 58.625 -2.875 C 53.476562 -0.394531 47.75 0.84375 41.4375 0.84375 C 35.207031 0.84375 29.554688 -0.394531 24.484375 -2.875 C 19.421875 -5.351562 15.410156 -9.046875 12.453125 -13.953125 C 9.503906 -18.859375 8.03125 -24.867188 8.03125 -31.984375 L 8.03125 -83.59375 Z M 24.796875 -83.59375 "/></g></g></g><g fill="#000000" fill-opacity="1"><g transform="translate(1243.63403, 343.95194)"><g><path d="M 69.21875 -57.734375 C 69.21875 -53.253906 68.160156 -49.054688 66.046875 -45.140625 C 63.929688 -41.234375 60.617188 -38.082031 56.109375 -35.6875 C 51.597656 -33.289062 45.910156 -32.09375 39.046875 -32.09375 L 25.03125 -32.09375 L 25.03125 0 L 8.265625 0 L 8.265625 -83.59375 L 39.046875 -83.59375 C 45.515625 -83.59375 51.019531 -82.472656 55.5625 -80.234375 C 60.113281 -78.003906 63.523438 -74.929688 65.796875 -71.015625 C 68.078125 -67.109375 69.21875 -62.679688 69.21875 -57.734375 Z M 38.328125 -45.625 C 42.953125 -45.625 46.382812 -46.679688 48.625 -48.796875 C 50.863281 -50.921875 51.984375 -53.898438 51.984375 -57.734375 C 51.984375 -65.867188 47.429688 -69.9375 38.328125 -69.9375 L 25.03125 -69.9375 L 25.03125 -45.625 Z M 38.328125 -45.625 "/></g></g></g><path stroke-linecap="butt" transform="matrix(0.00000000130877, 0.749869, -0.749869, 0.00000000130877, 729.373332, 44.992136)" fill="none" stroke-linejoin="miter" d="M 0.0000687925 12.49996 L 480.000619 12.499961 " stroke="#000000" stroke-width="25" stroke-opacity="1" stroke-miterlimit="4"/></svg>