<svg xmlns="http://www.w3.org/2000/svg" xmlns:xlink="http://www.w3.org/1999/xlink" width="2000" zoomAndPan="magnify" viewBox="0 0 1500 1499.999933" height="2000" preserveAspectRatio="xMidYMid meet" version="1.0"><path fill="#ffffff" d="M 115.160156 503.753906 L 115.152344 580.617188 L 239.140625 703.949219 C 307.339844 771.78125 363.527344 827.273438 364.011719 827.265625 C 364.492188 827.253906 417.464844 774.992188 481.726562 711.125 L 598.566406 595 L 607.578125 604.609375 C 617.84375 615.558594 624.003906 622.175781 652.785156 653.167969 C 664.097656 665.347656 674.050781 676.0625 674.90625 676.976562 C 675.761719 677.890625 683.679688 686.457031 692.5 696.011719 C 701.320312 705.566406 713.535156 718.652344 719.644531 725.085938 C 725.757812 731.519531 731.941406 738.144531 733.390625 739.804688 C 738.144531 745.242188 780.550781 790.941406 830.53125 844.484375 C 840.507812 855.171875 849.785156 865.195312 851.152344 866.765625 C 854.261719 870.34375 887.945312 906.199219 897.160156 915.742188 C 900.941406 919.660156 917.777344 937.527344 934.578125 955.453125 L 965.125 988.046875 L 965.519531 907.746094 L 965.917969 827.449219 L 962.464844 823.851562 C 956.753906 817.855469 951.058594 811.84375 945.375 805.820312 C 935.730469 795.632812 926.054688 785.472656 916.355469 775.335938 C 903.539062 761.957031 887.863281 745.160156 865.226562 720.546875 C 858.542969 713.34375 851.84375 706.160156 845.132812 698.984375 C 836.101562 689.324219 826.84375 679.359375 824.558594 676.839844 C 820.578125 672.484375 816.570312 668.160156 812.53125 663.855469 C 808.203125 659.238281 799.871094 650.277344 794.015625 643.945312 C 784.621094 633.777344 775.21875 623.617188 765.808594 613.464844 C 756.148438 603.027344 744.121094 590.015625 739.082031 584.550781 C 716.996094 560.59375 706.628906 549.429688 697.851562 540.144531 C 692.691406 534.683594 679.984375 520.9375 669.609375 509.597656 C 659.238281 498.257812 645.195312 483.121094 638.40625 475.960938 C 630.371094 467.476562 622.375 458.949219 614.425781 450.378906 C 608.027344 443.46875 602.167969 437.8125 601.40625 437.8125 C 600.644531 437.8125 546.945312 490.949219 482.074219 555.890625 L 364.132812 673.96875 L 247.671875 557.390625 C 183.613281 493.273438 127.597656 437.679688 123.1875 433.851562 L 115.167969 426.886719 Z M 868.777344 437.6875 C 868.425781 438.035156 868.152344 495.082031 868.171875 564.453125 L 868.203125 690.585938 L 885.351562 708.207031 C 901.511719 724.808594 939.421875 764.820312 955.886719 782.652344 C 959.984375 787.085938 964.035156 790.480469 964.898438 790.191406 C 966.914062 789.519531 967.910156 439.824219 965.898438 438.582031 C 964.300781 437.59375 869.738281 436.722656 868.777344 437.6875 M 1175.132812 456.234375 C 1110.335938 460.992188 1044.648438 493.070312 1001.898438 540.832031 L 991.878906 552.027344 L 991.800781 878.339844 L 1007.480469 894.179688 C 1049.980469 937.09375 1107.558594 964.785156 1162.152344 968.554688 C 1169.710938 969.078125 1178.988281 969.785156 1182.769531 970.121094 C 1193.347656 971.070312 1223.847656 968.179688 1241.171875 964.589844 C 1286.644531 955.167969 1329.527344 932.011719 1363.835938 898.355469 C 1388.667969 873.992188 1401.257812 856.597656 1415.355469 827.15625 C 1432.457031 791.4375 1439.355469 760.773438 1440.488281 715.40625 L 1441.246094 685.238281 L 1217.015625 685.238281 L 1206.382812 694.636719 C 1190.003906 709.109375 1170.984375 726.296875 1160.160156 736.40625 C 1148.605469 747.199219 1144.234375 751.136719 1127.964844 765.425781 C 1121.269531 771.304688 1115.96875 776.804688 1116.1875 777.644531 C 1116.445312 778.636719 1153.03125 779.320312 1220.996094 779.597656 C 1278.421875 779.832031 1325.664062 780.277344 1325.976562 780.589844 C 1327.027344 781.640625 1318.601562 796.859375 1312.019531 805.800781 C 1296.984375 826.222656 1279.136719 841.234375 1256.84375 852.207031 C 1232.972656 863.953125 1213.183594 868.511719 1186.0625 868.515625 C 1144.863281 868.523438 1107.1875 852.882812 1077.972656 823.644531 C 1016.648438 762.273438 1016.269531 667.238281 1077.109375 606.328125 C 1102.269531 581.136719 1133.066406 566.363281 1170.535156 561.519531 C 1212.65625 556.074219 1262.042969 571.972656 1293.105469 600.976562 L 1300.34375 607.738281 L 1306.851562 602.363281 C 1310.425781 599.410156 1325.757812 585.746094 1340.914062 572.003906 C 1356.070312 558.261719 1371.363281 544.441406 1374.898438 541.292969 C 1378.433594 538.144531 1381.320312 534.929688 1381.320312 534.140625 C 1381.320312 531.617188 1357.585938 511.082031 1342.886719 500.886719 C 1315.625 481.984375 1281.898438 467.472656 1249.5 460.707031 C 1238 458.304688 1195.226562 453.953125 1191.933594 454.847656 C 1191.511719 454.960938 1183.953125 455.585938 1175.132812 456.234375 M 115.175781 795.589844 L 115.167969 964.742188 L 166.171875 964.742188 C 211.269531 964.742188 217.28125 964.460938 218.101562 962.324219 C 218.609375 960.996094 219.027344 908.265625 219.027344 845.148438 L 219.027344 730.390625 L 167.105469 678.414062 L 115.179688 626.4375 Z M 554.179688 679.410156 L 510.726562 722.460938 L 511.117188 843.21875 L 511.511719 963.976562 L 613.839844 963.976562 L 614.230469 807.484375 L 614.617188 650.996094 L 607.414062 643.679688 C 603.453125 639.65625 599.628906 636.367188 598.921875 636.367188 C 598.210938 636.367188 578.078125 655.738281 554.179688 679.410156 M 577.46875 1064.042969 C 554.925781 1070.808594 549.359375 1102.347656 568.167969 1116.726562 C 573.34375 1120.683594 575.644531 1121.355469 585.585938 1121.800781 C 595.574219 1122.246094 597.707031 1121.855469 602.246094 1118.746094 C 610.035156 1113.410156 613.417969 1107.90625 614.253906 1099.203125 L 615.003906 1091.390625 L 599.917969 1091.832031 L 584.835938 1092.273438 L 584.828125 1096.855469 C 584.820312 1101.355469 584.972656 1101.445312 593.527344 1101.890625 C 600.5 1102.257812 602.058594 1102.800781 601.359375 1104.621094 C 600.097656 1107.914062 592.644531 1111.363281 586.808594 1111.359375 C 572.917969 1111.34375 564.445312 1096.691406 570.996094 1084.023438 C 576.039062 1074.273438 589.226562 1071.542969 597.527344 1078.527344 C 602.964844 1083.101562 603.597656 1083.144531 608.496094 1079.21875 L 612.3125 1076.160156 L 606.335938 1070.855469 C 597.796875 1063.277344 587.839844 1060.929688 577.46875 1064.042969 M 730.128906 1064.726562 C 722.898438 1067.304688 715.738281 1073.824219 712.929688 1080.386719 C 711.773438 1083.089844 710.824219 1089.34375 710.824219 1094.285156 C 710.824219 1101.777344 711.5625 1104.285156 715.261719 1109.390625 C 722.09375 1118.824219 728.828125 1122.273438 740.539062 1122.339844 C 757.164062 1122.4375 767.335938 1113.542969 767.335938 1098.917969 L 767.335938 1091.507812 L 739.84375 1091.507812 L 739.84375 1102.199219 L 748.199219 1102.199219 C 757.800781 1102.199219 758.378906 1104.546875 749.902344 1109.109375 C 742.511719 1113.089844 732.71875 1111.453125 727.246094 1105.324219 C 722.609375 1100.132812 721.523438 1090.410156 724.785156 1083.253906 C 726.859375 1078.699219 734.605469 1074.707031 741.367188 1074.707031 C 746.230469 1074.707031 755.117188 1078.871094 755.117188 1081.148438 C 755.117188 1083.261719 758.34375 1082.429688 762.34375 1079.285156 L 766.230469 1076.230469 L 760.628906 1070.945312 C 752.039062 1062.84375 741.457031 1060.6875 730.125 1064.726562 M 914.441406 1066.207031 C 902.886719 1071.585938 897.921875 1079.648438 897.921875 1093.035156 C 897.921875 1101.554688 898.601562 1104.207031 902.125 1109.535156 C 907.773438 1118.070312 915.921875 1122.054688 927.722656 1122.054688 C 937.976562 1122.054688 943.234375 1119.945312 949.285156 1113.410156 C 955.414062 1106.785156 956.882812 1102.898438 956.929688 1093.148438 C 956.976562 1082.730469 954.492188 1077.085938 946.917969 1070.4375 C 937.246094 1061.941406 926.582031 1060.554688 914.441406 1066.207031 M 364.125 1093.035156 L 364.125 1122.054688 L 374.816406 1122.054688 L 374.847656 1086.164062 L 382.046875 1097.234375 C 386.230469 1103.671875 390.308594 1108.308594 391.789062 1108.308594 C 393.289062 1108.308594 397.210938 1103.753906 401.328125 1097.234375 L 408.324219 1086.164062 L 408.371094 1104.109375 L 408.414062 1122.054688 L 419.105469 1122.054688 L 419.105469 1064.015625 L 414.617188 1064.015625 C 410.648438 1064.015625 409.101562 1065.597656 401.253906 1077.652344 C 396.371094 1085.15625 392.035156 1091.300781 391.613281 1091.308594 C 391.195312 1091.320312 386.914062 1085.183594 382.105469 1077.671875 C 374.257812 1065.421875 372.882812 1064.015625 368.742188 1064.015625 L 364.125 1064.015625 Z M 466.453125 1093.035156 L 466.453125 1122.054688 L 477.042969 1122.054688 L 477.476562 1104.871094 L 477.910156 1087.691406 L 490.671875 1104.871094 C 501.808594 1119.863281 504 1122.054688 507.855469 1122.054688 L 512.273438 1122.054688 L 512.273438 1063.832031 L 506.546875 1064.308594 L 500.820312 1064.78125 L 500.382812 1081.347656 L 499.949219 1097.914062 L 492.683594 1088.195312 C 488.6875 1082.847656 483.179688 1075.222656 480.445312 1071.246094 C 476.410156 1065.378906 474.621094 1064.015625 470.960938 1064.015625 L 466.453125 1064.015625 Z M 813.03125 1064.648438 C 812.679688 1064.996094 812.59375 1078.054688 812.839844 1093.667969 L 813.285156 1122.054688 L 823.847656 1122.054688 L 823.847656 1112.128906 C 823.847656 1102.3125 823.894531 1102.199219 828.046875 1102.21875 C 831.511719 1102.234375 833.398438 1103.972656 838.828125 1112.148438 C 845.074219 1121.550781 845.71875 1122.054688 851.429688 1122.054688 C 854.738281 1122.054688 857.449219 1121.417969 857.449219 1120.640625 C 857.449219 1119.863281 854.652344 1115.171875 851.234375 1110.222656 L 845.023438 1101.21875 L 849.660156 1096.253906 C 855.488281 1090.011719 856.90625 1083.074219 853.847656 1075.753906 C 850.109375 1066.808594 843.871094 1064.027344 827.539062 1064.023438 C 819.910156 1064.019531 813.378906 1064.300781 813.03125 1064.648438 M 1001.039062 1085.6875 C 1001.066406 1109.945312 1001.929688 1113.101562 1010.046875 1118.574219 C 1014.105469 1121.304688 1017.339844 1122.054688 1025.097656 1122.054688 C 1034.539062 1122.054688 1035.242188 1121.789062 1040.910156 1116.125 L 1046.835938 1110.195312 L 1046.835938 1064.015625 L 1036.144531 1064.015625 L 1036.144531 1084.347656 C 1036.144531 1102.695312 1035.84375 1105.003906 1033.03125 1108.019531 C 1030.882812 1110.328125 1028.117188 1111.363281 1024.105469 1111.363281 C 1014.441406 1111.363281 1013.394531 1108.933594 1012.902344 1085.332031 L 1012.472656 1064.78125 L 1006.746094 1064.308594 L 1001.019531 1063.832031 Z M 1092.65625 1093.128906 L 1092.65625 1122.238281 L 1098.382812 1121.765625 L 1104.113281 1121.292969 L 1104.875 1112.128906 C 1105.542969 1104.113281 1106.007812 1103.027344 1108.59375 1103.476562 C 1110.21875 1103.757812 1114.464844 1103.550781 1118.035156 1103.015625 C 1135.796875 1100.351562 1141.105469 1076.339844 1125.96875 1067.109375 C 1121.863281 1064.605469 1118.261719 1064.027344 1106.785156 1064.023438 L 1092.65625 1064.015625 Z M 823.847656 1083.109375 L 823.847656 1091.507812 L 830.722656 1091.507812 C 835.558594 1091.507812 838.5 1090.601562 840.648438 1088.453125 C 847.304688 1081.800781 842.007812 1074.707031 830.378906 1074.707031 L 823.847656 1074.707031 Z M 914.355469 1080.335938 C 909.359375 1085.636719 909.089844 1086.457031 909.742188 1094.339844 C 910.324219 1101.359375 911.21875 1103.410156 915.277344 1107.039062 C 923.988281 1114.824219 938.609375 1112.039062 943.535156 1101.65625 C 946.648438 1095.09375 946.652344 1093.113281 943.554688 1085.371094 C 940.628906 1078.058594 935.128906 1074.707031 926.054688 1074.707031 C 920.671875 1074.707031 918.832031 1075.59375 914.355469 1080.335938 M 1104.875 1083.871094 L 1104.875 1093.035156 L 1110.644531 1093.035156 C 1118.316406 1093.035156 1123.203125 1089.480469 1123.203125 1083.894531 C 1123.203125 1077.589844 1119.574219 1074.707031 1111.640625 1074.707031 L 1104.875 1074.707031 Z M 115.167969 1092.273438 L 115.167969 1096.089844 L 205.101562 1096.089844 C 292.859375 1096.089844 295.054688 1096.019531 295.8125 1093.125 C 296.238281 1091.492188 296.203125 1089.773438 295.738281 1089.304688 C 295.269531 1088.835938 254.449219 1088.453125 205.027344 1088.453125 L 115.167969 1088.453125 Z M 1201.613281 1090.835938 C 1201.105469 1092.160156 1201.339844 1093.886719 1202.128906 1094.675781 C 1203.003906 1095.550781 1238.527344 1095.960938 1292.824219 1095.71875 C 1380.933594 1095.332031 1382.085938 1095.285156 1382.085938 1092.273438 C 1382.085938 1089.257812 1380.933594 1089.210938 1292.3125 1088.824219 C 1211.785156 1088.46875 1202.441406 1088.675781 1201.613281 1090.835938 " fill-opacity="1" fill-rule="evenodd"/></svg>