<svg xmlns="http://www.w3.org/2000/svg" xmlns:xlink="http://www.w3.org/1999/xlink" width="2000" zoomAndPan="magnify" viewBox="0 0 1500 1499.999933" height="2000" preserveAspectRatio="xMidYMid meet" version="1.0"><path fill="#000000" d="M 115.226562 501.703125 L 115.214844 578.578125 L 239.222656 701.925781 C 307.429688 769.769531 363.625 825.265625 364.105469 825.257812 C 364.589844 825.246094 417.566406 772.976562 481.835938 709.101562 L 598.691406 592.964844 L 607.703125 602.574219 C 617.972656 613.527344 624.132812 620.140625 652.914062 651.136719 C 664.230469 663.320312 674.183594 674.035156 675.039062 674.949219 C 675.894531 675.863281 683.8125 684.433594 692.632812 693.988281 C 701.457031 703.542969 713.675781 716.628906 719.785156 723.066406 C 725.898438 729.5 732.082031 736.128906 733.535156 737.785156 C 738.285156 743.226562 780.699219 788.929688 830.683594 842.476562 C 840.664062 853.164062 849.941406 863.195312 851.304688 864.761719 C 854.417969 868.339844 888.105469 904.199219 897.320312 913.746094 C 901.101562 917.660156 917.941406 935.535156 934.746094 953.460938 L 965.296875 986.058594 L 966.085938 825.441406 L 962.636719 821.84375 C 956.925781 815.84375 951.226562 809.835938 945.542969 803.8125 C 935.894531 793.621094 926.222656 783.457031 916.519531 773.324219 C 903.703125 759.941406 888.023438 743.140625 865.386719 718.527344 C 858.699219 711.324219 852 704.136719 845.285156 696.960938 C 836.253906 687.300781 826.996094 677.332031 824.710938 674.8125 C 820.730469 670.460938 816.71875 666.132812 812.683594 661.828125 C 808.351562 657.207031 800.019531 648.25 794.164062 641.917969 C 784.769531 631.746094 775.367188 621.585938 765.953125 611.429688 C 756.292969 600.992188 744.265625 587.980469 739.222656 582.511719 C 717.136719 558.554688 706.765625 547.386719 697.988281 538.101562 C 692.828125 532.640625 680.117188 518.890625 669.746094 507.550781 C 659.371094 496.207031 645.328125 481.070312 638.535156 473.910156 C 630.5 465.421875 622.503906 456.894531 614.550781 448.324219 C 608.152344 441.414062 602.292969 435.757812 601.53125 435.757812 C 600.769531 435.757812 547.0625 488.898438 482.1875 553.847656 L 364.230469 671.941406 L 247.753906 555.347656 C 183.6875 491.222656 127.664062 435.621094 123.253906 431.792969 L 115.234375 424.828125 Z M 868.933594 435.628906 C 868.582031 435.980469 868.3125 493.03125 868.328125 562.414062 L 868.359375 688.5625 L 885.511719 706.183594 C 901.675781 722.789062 939.589844 762.804688 956.058594 780.636719 C 960.152344 785.070312 964.207031 788.464844 965.066406 788.179688 C 967.082031 787.507812 968.078125 437.769531 966.066406 436.527344 C 964.46875 435.539062 869.898438 434.667969 868.933594 435.628906 M 1175.328125 454.179688 C 1110.523438 458.9375 1044.828125 491.019531 1002.070312 538.789062 L 992.050781 549.984375 L 992.011719 713.160156 L 991.972656 876.339844 L 1007.65625 892.179688 C 1050.164062 935.101562 1107.746094 962.792969 1162.34375 966.566406 C 1169.90625 967.085938 1179.183594 967.792969 1182.964844 968.128906 C 1193.546875 969.078125 1224.046875 966.191406 1241.375 962.597656 C 1286.851562 953.175781 1329.738281 930.015625 1364.054688 896.355469 C 1388.890625 871.992188 1401.480469 854.59375 1415.578125 825.144531 C 1432.683594 789.425781 1439.582031 758.757812 1440.714844 713.382812 L 1441.472656 683.214844 L 1217.21875 683.214844 L 1206.582031 692.613281 C 1190.203125 707.085938 1171.179688 724.273438 1160.355469 734.386719 C 1148.796875 745.179688 1144.425781 749.121094 1128.15625 763.410156 C 1121.457031 769.289062 1116.15625 774.789062 1116.375 775.628906 C 1116.632812 776.625 1153.222656 777.304688 1221.199219 777.582031 C 1278.628906 777.816406 1325.878906 778.265625 1326.191406 778.578125 C 1327.242188 779.628906 1318.816406 794.847656 1312.234375 803.789062 C 1297.195312 824.214844 1279.34375 839.226562 1257.050781 850.199219 C 1233.171875 861.949219 1213.382812 866.507812 1186.261719 866.515625 C 1145.054688 866.519531 1107.375 850.878906 1078.15625 821.636719 C 1016.824219 760.257812 1016.445312 665.210938 1077.289062 604.292969 C 1102.453125 579.097656 1133.253906 564.324219 1170.730469 559.476562 C 1212.855469 554.03125 1262.25 569.933594 1293.316406 598.941406 L 1300.554688 605.703125 L 1307.0625 600.328125 C 1310.640625 597.371094 1325.972656 583.710938 1341.128906 569.964844 C 1356.289062 556.21875 1371.585938 542.398438 1375.117188 539.25 C 1378.652344 536.101562 1381.542969 532.882812 1381.542969 532.097656 C 1381.542969 529.574219 1357.804688 509.035156 1343.101562 498.839844 C 1315.835938 479.933594 1282.109375 465.421875 1249.703125 458.652344 C 1238.203125 456.25 1195.425781 451.898438 1192.128906 452.796875 C 1191.710938 452.910156 1184.148438 453.53125 1175.328125 454.179688 M 115.242188 793.578125 L 115.234375 962.75 L 166.242188 962.75 C 211.347656 962.75 217.359375 962.46875 218.179688 960.332031 C 218.6875 959.003906 219.105469 906.269531 219.105469 843.140625 L 219.105469 728.367188 L 115.246094 624.40625 Z M 554.296875 677.386719 L 510.84375 720.4375 L 511.625 961.984375 L 613.96875 961.984375 L 614.355469 805.476562 L 614.746094 648.964844 L 607.539062 641.648438 C 603.578125 637.625 599.753906 634.332031 599.046875 634.332031 C 598.335938 634.332031 578.199219 653.707031 554.296875 677.386719 M 577.589844 1062.0625 C 555.046875 1068.832031 549.476562 1100.371094 568.289062 1114.753906 C 573.464844 1118.710938 575.765625 1119.386719 585.707031 1119.828125 C 595.695312 1120.273438 597.832031 1119.882812 602.371094 1116.773438 C 610.160156 1111.4375 613.542969 1105.933594 614.378906 1097.226562 L 615.132812 1089.417969 L 600.042969 1089.855469 L 584.957031 1090.296875 L 584.949219 1094.878906 C 584.945312 1099.382812 585.097656 1099.46875 593.652344 1099.917969 C 600.625 1100.28125 602.183594 1100.828125 601.484375 1102.644531 C 600.222656 1105.941406 592.765625 1109.390625 586.929688 1109.382812 C 573.039062 1109.367188 564.566406 1094.71875 571.121094 1082.046875 C 576.160156 1072.296875 589.347656 1069.5625 597.652344 1076.546875 C 603.089844 1081.125 603.722656 1081.167969 608.621094 1077.242188 L 612.441406 1074.183594 L 606.460938 1068.875 C 597.921875 1061.300781 587.964844 1058.949219 577.589844 1062.0625 M 730.269531 1062.746094 C 723.039062 1065.324219 715.875 1071.847656 713.066406 1078.410156 C 711.910156 1081.113281 710.964844 1087.367188 710.964844 1092.308594 C 710.964844 1099.800781 711.699219 1102.308594 715.402344 1107.417969 C 722.234375 1116.851562 728.96875 1120.300781 740.683594 1120.367188 C 757.304688 1120.464844 767.484375 1111.570312 767.484375 1096.945312 L 767.484375 1089.53125 L 739.988281 1089.53125 L 739.988281 1100.226562 L 748.339844 1100.226562 C 757.941406 1100.226562 758.523438 1102.570312 750.042969 1107.136719 C 742.65625 1111.117188 732.863281 1109.480469 727.386719 1103.351562 C 722.746094 1098.160156 721.664062 1088.433594 724.925781 1081.277344 C 727 1076.722656 734.746094 1072.730469 741.511719 1072.730469 C 746.371094 1072.730469 755.261719 1076.890625 755.261719 1079.171875 C 755.261719 1081.285156 758.488281 1080.453125 762.488281 1077.308594 L 766.375 1074.25 L 760.773438 1068.96875 C 752.183594 1060.867188 741.601562 1058.707031 730.269531 1062.746094 M 914.601562 1064.226562 C 903.046875 1069.609375 898.085938 1077.667969 898.085938 1091.058594 C 898.085938 1099.578125 898.761719 1102.234375 902.285156 1107.5625 C 907.9375 1116.097656 916.085938 1120.082031 927.886719 1120.082031 C 938.140625 1120.082031 943.398438 1117.976562 949.453125 1111.433594 C 955.582031 1104.8125 957.050781 1100.925781 957.097656 1091.171875 C 957.144531 1080.753906 954.660156 1075.105469 947.085938 1068.457031 C 937.410156 1059.964844 926.746094 1058.574219 914.601562 1064.226562 M 364.21875 1091.058594 L 364.21875 1120.082031 L 374.910156 1120.082031 L 374.929688 1102.132812 L 374.945312 1084.1875 L 382.144531 1095.261719 C 386.328125 1101.699219 390.410156 1106.335938 391.886719 1106.335938 C 393.386719 1106.335938 397.3125 1101.78125 401.429688 1095.261719 L 408.425781 1084.1875 L 408.472656 1102.132812 L 408.515625 1120.082031 L 419.210938 1120.082031 L 419.210938 1062.039062 L 414.71875 1062.039062 C 410.75 1062.039062 409.203125 1063.617188 401.355469 1075.675781 C 396.472656 1083.179688 392.132812 1089.324219 391.714844 1089.335938 C 391.292969 1089.34375 387.015625 1083.207031 382.203125 1075.695312 C 374.355469 1063.445312 372.980469 1062.039062 368.835938 1062.039062 L 364.21875 1062.039062 Z M 466.5625 1091.058594 L 466.5625 1120.082031 L 477.15625 1120.082031 L 477.585938 1102.898438 L 478.019531 1085.714844 L 490.78125 1102.898438 C 501.921875 1117.890625 504.113281 1120.082031 507.96875 1120.082031 L 512.386719 1120.082031 L 512.386719 1061.851562 L 506.660156 1062.328125 L 500.929688 1062.800781 L 500.496094 1079.371094 L 500.0625 1095.9375 L 492.796875 1086.21875 C 488.796875 1080.871094 483.289062 1073.242188 480.554688 1069.265625 C 476.519531 1063.402344 474.730469 1062.039062 471.070312 1062.039062 L 466.5625 1062.039062 Z M 813.179688 1062.667969 C 812.832031 1063.019531 812.746094 1076.078125 812.992188 1091.691406 L 813.4375 1120.082031 L 824 1120.082031 L 824 1110.152344 C 824 1100.335938 824.046875 1100.226562 828.199219 1100.246094 C 831.667969 1100.261719 833.554688 1102 838.984375 1110.175781 C 845.230469 1119.578125 845.871094 1120.082031 851.585938 1120.082031 C 854.894531 1120.082031 857.605469 1119.445312 857.605469 1118.667969 C 857.605469 1117.890625 854.808594 1113.199219 851.390625 1108.246094 L 845.179688 1099.242188 L 849.816406 1094.277344 C 855.644531 1088.039062 857.0625 1081.097656 854.003906 1073.773438 C 850.265625 1064.832031 844.027344 1062.050781 827.691406 1062.042969 C 820.0625 1062.039062 813.53125 1062.320312 813.179688 1062.667969 M 1001.214844 1083.710938 C 1001.238281 1107.972656 1002.105469 1111.128906 1010.222656 1116.601562 C 1014.28125 1119.335938 1017.515625 1120.082031 1025.273438 1120.082031 C 1034.71875 1120.082031 1035.421875 1119.820312 1041.085938 1114.152344 L 1047.015625 1108.222656 L 1047.015625 1062.039062 L 1036.324219 1062.039062 L 1036.324219 1082.371094 C 1036.324219 1100.722656 1036.019531 1103.03125 1033.210938 1106.046875 C 1031.058594 1108.355469 1028.296875 1109.390625 1024.28125 1109.390625 C 1014.617188 1109.390625 1013.570312 1106.957031 1013.074219 1083.355469 L 1012.648438 1062.800781 L 1006.921875 1062.328125 L 1001.191406 1061.851562 Z M 1092.84375 1091.152344 L 1092.84375 1120.269531 L 1098.570312 1119.792969 L 1104.296875 1119.320312 L 1105.0625 1110.152344 C 1105.730469 1102.136719 1106.195312 1101.054688 1108.78125 1101.503906 C 1110.402344 1101.785156 1114.652344 1101.578125 1118.222656 1101.042969 C 1135.988281 1098.378906 1141.296875 1074.359375 1126.15625 1065.132812 C 1122.050781 1062.625 1118.449219 1062.046875 1106.972656 1062.042969 L 1092.84375 1062.039062 Z M 824 1081.132812 L 824 1089.53125 L 830.875 1089.53125 C 835.710938 1089.53125 838.652344 1088.625 840.804688 1086.476562 C 847.457031 1079.820312 842.164062 1072.730469 830.535156 1072.730469 L 824 1072.730469 Z M 914.519531 1078.359375 C 909.519531 1083.660156 909.25 1084.484375 909.90625 1092.363281 C 910.488281 1099.386719 911.378906 1101.4375 915.441406 1105.0625 C 924.152344 1112.851562 938.777344 1110.0625 943.703125 1099.679688 C 946.816406 1093.121094 946.820312 1091.136719 943.71875 1083.394531 C 940.792969 1076.082031 935.296875 1072.730469 926.21875 1072.730469 C 920.835938 1072.730469 918.996094 1073.617188 914.519531 1078.359375 M 1105.0625 1081.894531 L 1105.0625 1091.058594 L 1110.832031 1091.058594 C 1118.507812 1091.058594 1123.394531 1087.503906 1123.394531 1081.917969 C 1123.394531 1075.613281 1119.761719 1072.730469 1111.828125 1072.730469 L 1105.0625 1072.730469 Z M 115.234375 1090.296875 L 115.234375 1094.113281 L 205.179688 1094.113281 C 292.945312 1094.113281 295.144531 1094.042969 295.902344 1091.148438 C 296.328125 1089.515625 296.292969 1087.796875 295.824219 1087.328125 C 295.355469 1086.859375 254.53125 1086.476562 205.101562 1086.476562 L 115.234375 1086.476562 Z M 1201.8125 1088.859375 C 1201.304688 1090.183594 1201.535156 1091.914062 1202.328125 1092.703125 C 1203.203125 1093.578125 1238.730469 1093.984375 1293.035156 1093.746094 C 1381.15625 1093.355469 1382.304688 1093.3125 1382.304688 1090.296875 C 1382.304688 1087.28125 1381.15625 1087.238281 1292.523438 1086.847656 C 1211.984375 1086.496094 1202.640625 1086.699219 1201.8125 1088.859375 " fill-opacity="1" fill-rule="evenodd"/></svg>